<svg xmlns="http://www.w3.org/2000/svg" width="165" height="154" viewBox="0 0 165 154" fill="none">
    <path d="M47.9202 153.032L47.9534 152.533L47.9564 152.533L47.9668 152.534L48.0094 152.536C48.0473 152.539 48.1041 152.542 48.1788 152.546C48.3281 152.554 48.5489 152.566 48.8331 152.578C49.4015 152.603 50.2233 152.631 51.2339 152.646C53.2558 152.675 56.03 152.649 59.0414 152.429C62.0547 152.209 65.294 151.795 68.2498 151.053C71.2137 150.308 73.8493 149.244 75.6907 147.749C79.3579 144.77 80.0653 139.934 80.7869 134.825L80.8011 134.724C81.5042 129.745 82.2431 124.513 86.2429 121.264C90.2427 118.016 95.5155 118.366 100.533 118.699L100.634 118.706C105.782 119.048 110.661 119.348 114.329 116.369C117.996 113.391 118.703 108.554 119.425 103.445L119.439 103.345C120.142 98.3658 120.881 93.1333 124.881 89.885C128.881 86.6366 134.153 86.9868 139.171 87.32L139.272 87.3267C144.42 87.6684 149.299 87.9683 152.966 84.99C154.808 83.4946 156.39 81.1333 157.727 78.3852C159.06 75.6444 160.129 72.5588 160.962 69.6548C161.795 66.7526 162.39 64.0427 162.776 62.0578C162.969 61.0657 163.11 60.2556 163.203 59.6942C163.249 59.4136 163.283 59.1952 163.306 59.0473C163.317 58.9734 163.325 58.9171 163.331 58.8795L163.337 58.8373L163.339 58.8245L163.834 58.8938L164.283 58.9574C164.329 58.9639 164.329 58.9641 164.329 58.9641L164.328 58.9681L164.327 58.9797L164.32 59.0246C164.314 59.064 164.306 59.1221 164.294 59.1979C164.271 59.3495 164.236 59.572 164.189 59.8568C164.096 60.4265 163.953 61.2462 163.758 62.2488C163.368 64.2534 162.767 66.993 161.924 69.9307C161.081 72.8667 159.993 76.0117 158.626 78.8225C157.263 81.626 155.602 84.1374 153.597 85.7662C149.597 89.0146 144.324 88.6644 139.307 88.3312L139.206 88.3245C134.057 87.9828 129.178 87.6829 125.511 90.6612C121.844 93.6395 121.137 98.4762 120.415 103.585L120.401 103.686C119.698 108.665 118.959 113.897 114.959 117.145C110.959 120.394 105.686 120.044 100.669 119.71L100.568 119.704C95.4195 119.362 90.5406 119.062 86.8733 122.041C83.2061 125.019 82.4987 129.856 81.7771 134.964L81.7629 135.065C81.0598 140.044 80.3209 145.276 76.3211 148.525C74.3155 150.154 71.517 151.263 68.4934 152.023C65.4619 152.784 62.1607 153.203 59.1143 153.426C56.066 153.649 53.2614 153.675 51.2195 153.645C50.1981 153.631 49.3667 153.602 48.7898 153.577C48.5014 153.565 48.2766 153.553 48.1234 153.545C48.0469 153.54 47.9882 153.537 47.9485 153.534L47.9032 153.532L47.8884 153.531C47.8884 153.531 47.8871 153.531 47.9202 153.032Z" fill="#0B489D"/>
    <path d="M32.1398 133.601L32.173 133.102L32.176 133.102L32.1865 133.103L32.229 133.106C32.267 133.108 32.3237 133.111 32.3984 133.115C32.5477 133.124 32.7685 133.135 33.0527 133.147C33.6211 133.172 34.4429 133.2 35.4535 133.215C37.4754 133.244 40.2496 133.218 43.261 132.998C46.2743 132.778 49.5136 132.364 52.4695 131.622C55.4333 130.878 58.069 129.813 59.9103 128.318C63.5775 125.34 64.2849 120.503 65.0065 115.394L65.0207 115.293C65.7238 110.314 66.4628 105.082 70.4625 101.834C74.4623 98.5852 79.7351 98.9354 84.7524 99.2686L84.8537 99.2753C90.002 99.617 94.8809 99.9169 98.5482 96.9385C102.215 93.9602 102.923 89.1235 103.644 84.0146L103.659 83.9141C104.362 78.9351 105.101 73.7026 109.1 70.4543C113.1 67.2059 118.373 67.5561 123.39 67.8893L123.492 67.896C128.64 68.2377 133.519 68.5376 137.186 65.5593C139.027 64.0639 140.61 61.7026 141.946 58.9545C143.279 56.2137 144.348 53.1281 145.182 50.2241C146.015 47.3219 146.61 44.612 146.996 42.6271C147.189 41.635 147.33 40.8249 147.422 40.2636C147.469 39.9829 147.503 39.7645 147.525 39.6166C147.536 39.5427 147.545 39.4864 147.55 39.4488L147.556 39.4066L147.558 39.3938L148.053 39.4631C148.549 39.5331 148.549 39.5335 148.549 39.5335L148.548 39.5374L148.546 39.549L148.54 39.5939C148.534 39.6333 148.525 39.6914 148.514 39.7672C148.491 39.9188 148.456 40.1413 148.409 40.4261C148.315 40.9958 148.173 41.8155 147.977 42.8181C147.587 44.8227 146.986 47.5623 146.143 50.5C145.3 53.436 144.213 56.581 142.846 59.3918C141.482 62.1953 139.822 64.7067 137.816 66.3355C133.817 69.5839 128.544 69.2337 123.527 68.9005L123.425 68.8938C118.277 68.5521 113.398 68.2522 109.731 71.2305C106.064 74.2088 105.356 79.0455 104.635 84.1545L104.62 84.255C103.917 89.2339 103.178 94.4665 99.1786 97.7148C95.1788 100.963 89.906 100.613 84.8887 100.28L84.7874 100.273C79.6391 99.9314 74.7602 99.6315 71.0929 102.61C67.4257 105.588 66.7183 110.425 65.9967 115.534L65.9825 115.634C65.2794 120.613 64.5405 125.846 60.5407 129.094C58.5351 130.723 55.7366 131.833 52.713 132.592C49.6815 133.353 46.3803 133.773 43.3339 133.995C40.2856 134.218 37.481 134.244 35.4391 134.215C34.4177 134.2 33.5863 134.171 33.0094 134.146C32.721 134.134 32.4962 134.122 32.343 134.114C32.2665 134.11 32.2078 134.106 32.1681 134.104L32.1228 134.101L32.1111 134.1L32.108 134.1C32.108 134.1 32.1067 134.1 32.1398 133.601Z" fill="#0B489D"/>
    <path d="M16.3927 113.672L16.3596 114.17C16.3264 114.669 16.3268 114.669 16.3268 114.669L16.3308 114.67L16.3426 114.67L16.3878 114.673C16.4275 114.676 16.4862 114.679 16.5628 114.683C16.7159 114.692 16.9407 114.703 17.2292 114.716C17.806 114.741 18.6374 114.769 19.6588 114.784C21.7008 114.814 24.5053 114.787 27.5536 114.565C30.6 114.342 33.9013 113.923 36.9327 113.161C39.9563 112.402 42.7548 111.292 44.7604 109.664C48.7602 106.415 49.4991 101.183 50.2022 96.2037L50.2164 96.1032C50.938 90.9943 51.6454 86.1576 55.3127 83.1793C58.9799 80.2009 63.8588 80.5008 69.0072 80.8425L69.1084 80.8493C74.1257 81.1824 79.3986 81.5326 83.3983 78.2843C87.3981 75.0359 88.137 69.8034 88.8401 64.8244L88.8543 64.7239C89.5759 59.615 90.2833 54.7783 93.9505 51.8C97.6178 48.8217 102.497 49.1215 107.645 49.4633L107.746 49.47C112.764 49.8032 118.036 50.1533 122.036 46.905C124.042 45.2761 125.702 42.7648 127.065 39.9613C128.432 37.1504 129.52 34.0054 130.363 31.0695C131.206 28.1317 131.807 25.3921 132.197 23.3876C132.392 22.3849 132.535 21.5653 132.629 20.9956C132.676 20.7107 132.71 20.4883 132.734 20.3367C132.745 20.2609 132.754 20.2027 132.759 20.1634L132.766 20.1185L132.768 20.1038C132.768 20.1038 132.768 20.1025 132.273 20.0326L131.778 19.9627L131.778 19.9657L131.776 19.976L131.77 20.0183L131.766 20.0458L131.758 20.1002C131.754 20.1255 131.75 20.1541 131.745 20.1861C131.722 20.3339 131.688 20.5523 131.642 20.833C131.55 21.3944 131.409 22.2045 131.216 23.1965C130.829 25.1814 130.235 27.8913 129.402 30.7936C128.568 33.6976 127.499 36.7832 126.166 39.5239C124.83 42.272 123.247 44.6333 121.406 46.1287C117.739 49.107 112.86 48.8072 107.711 48.4655L107.61 48.4587C102.593 48.1255 97.3199 47.7754 93.3201 51.0237C89.3204 54.2721 88.5814 59.5046 87.8783 64.4835L87.8641 64.5841C87.1425 69.693 86.4351 74.5297 82.7679 77.508C79.1006 80.4863 74.2217 80.1865 69.0734 79.8447L68.9721 79.838C63.9548 79.5048 58.682 79.1547 54.6822 82.403C50.6825 85.6514 49.9436 90.8839 49.2404 95.8628L49.2262 95.9633C48.5046 101.072 47.7973 105.909 44.13 108.887C42.2887 110.383 39.653 111.447 36.6892 112.191C33.7333 112.934 30.494 113.347 27.4807 113.567C24.4693 113.787 21.6951 113.813 19.6732 113.784C18.6626 113.77 17.8408 113.741 17.2724 113.717C16.9883 113.705 16.7675 113.693 16.6181 113.685C16.5435 113.681 16.4867 113.677 16.4488 113.675L16.4062 113.672L16.3927 113.672Z" fill="#0B489D"/>
    <path d="M0.579663 94.7403L0.61285 94.2414L0.626282 94.2423L0.668869 94.245C0.706782 94.2473 0.763574 94.2506 0.838238 94.2548C0.987568 94.2631 1.20836 94.2744 1.49254 94.2867C2.06094 94.3114 2.88269 94.3397 3.89329 94.3542C5.91519 94.3833 8.68942 94.3573 11.7008 94.1373C14.7141 93.9172 17.9534 93.5036 20.9093 92.7613C23.8731 92.017 26.5088 90.9526 28.3501 89.4572C32.0174 86.4789 32.7247 81.6422 33.4463 76.5333L33.4605 76.4327C34.1637 71.4538 34.9026 66.2213 38.9023 62.9729C42.9021 59.7246 48.1749 60.0747 53.1922 60.4079L53.2935 60.4146C58.4418 60.7564 63.3207 61.0562 66.988 58.0779C70.6552 55.0996 71.3626 50.2629 72.0842 45.154L72.0984 45.0534C72.8015 40.0745 73.5405 34.842 77.5402 31.5937C81.54 28.3453 86.8128 28.6955 91.8301 29.0287L91.9314 29.0354C97.0797 29.3771 101.959 29.677 105.626 26.6986C107.467 25.2032 109.05 22.8419 110.386 20.0938C111.719 17.3531 112.788 14.2675 113.622 11.3635C114.455 8.46124 115.049 5.75134 115.436 3.76646C115.629 2.77438 115.77 1.96428 115.862 1.40292C115.908 1.12226 115.943 0.903832 115.965 0.755975C115.976 0.682051 115.985 0.625778 115.99 0.588199L115.996 0.545972L115.998 0.53562L115.998 0.533178L116.493 0.602508C116.988 0.672436 116.988 0.672826 116.988 0.672826L116.988 0.676766L116.986 0.688411L116.98 0.733298C116.974 0.772667 116.965 0.830783 116.954 0.906597C116.931 1.05821 116.896 1.28064 116.849 1.5655C116.755 2.13519 116.612 2.95483 116.417 3.95748C116.027 5.96207 115.426 8.70164 114.583 11.6394C113.74 14.5754 112.652 17.7203 111.285 20.5312C109.922 23.3347 108.262 25.8461 106.256 27.4749C102.257 30.7232 96.9837 30.3731 91.9664 30.0399L91.8651 30.0332C86.7168 29.6915 81.8379 29.3916 78.1706 32.3699C74.5034 35.3482 73.796 40.1849 73.0744 45.2938L73.0602 45.3943C72.3571 50.3733 71.6182 55.6058 67.6184 58.8542C63.6187 62.1025 58.3458 61.7524 53.3285 61.4192L53.2273 61.4125C48.0789 61.0707 43.2 60.7709 39.5328 63.7492C35.8655 66.7275 35.1582 71.5642 34.4365 76.6731L34.4223 76.7736C33.7192 81.7526 32.9803 86.9851 28.9805 90.2334C26.9749 91.8623 24.1764 92.9719 21.1528 93.7312C18.1214 94.4925 14.8201 94.9121 11.7737 95.1347C8.72545 95.3574 5.92087 95.3835 3.87889 95.3541C2.85754 95.3394 2.02609 95.3108 1.44925 95.2858C1.16082 95.2733 0.935991 95.2617 0.78286 95.2532C0.706291 95.249 0.64764 95.2455 0.607918 95.2431L0.562657 95.2403L0.550912 95.2395L0.5478 95.2393C0.5478 95.2393 0.546546 95.2392 0.579663 94.7403Z" fill="#0B489D"/>
</svg>