<svg xmlns="http://www.w3.org/2000/svg" width="54" height="54" viewBox="0 0 54 54" fill="none">
  <path opacity="0.1" d="M26.9514 52.8259C40.9991 52.8259 52.387 41.438 52.387 27.3903C52.387 13.3426 40.9991 1.9547 26.9514 1.9547C12.9038 1.9547 1.51586 13.3426 1.51586 27.3903C1.51586 41.438 12.9038 52.8259 26.9514 52.8259Z" stroke="white" stroke-width="2.0906"/>
  <path d="M29.1729 21.1465H31.4146C31.6208 21.1465 31.7882 20.9888 31.7882 20.7945V18.6821C31.7882 18.4878 31.6208 18.3301 31.4146 18.3301H29.1729C26.9074 18.3301 25.0632 20.0671 25.0632 22.2027V24.667H22.448C22.2418 24.667 22.0744 24.8248 22.0744 25.0191V27.1314C22.0744 27.3257 22.2418 27.4835 22.448 27.4835H25.0632V34.8766C25.0632 35.0709 25.2306 35.2286 25.4368 35.2286H27.6785C27.8847 35.2286 28.0521 35.0709 28.0521 34.8766V27.4835H30.6674C30.828 27.4835 30.9707 27.3863 31.0223 27.2427L31.7695 25.1303C31.8076 25.0233 31.7882 24.905 31.7179 24.8128C31.647 24.7213 31.5349 24.667 31.4146 24.667H28.0521V22.2027C28.0521 21.6204 28.555 21.1465 29.1729 21.1465Z" fill="white"/>
</svg>