<svg width="54" height="54" viewBox="0 0 54 54" fill="none" xmlns="http://www.w3.org/2000/svg">
<path opacity="0.1" d="M27.1709 52.8259C41.2186 52.8259 52.6065 41.438 52.6065 27.3903C52.6065 13.3426 41.2186 1.9547 27.1709 1.9547C13.1232 1.9547 1.73528 13.3426 1.73528 27.3903C1.73528 41.438 13.1232 52.8259 27.1709 52.8259Z" stroke="white" stroke-width="2.0906"/>
<path d="M27.8092 17C28.9342 17.003 29.5052 17.009 29.9982 17.023L30.1922 17.03C30.4162 17.038 30.6372 17.048 30.9042 17.06C31.9682 17.11 32.6942 17.278 33.3312 17.525C33.9912 17.779 34.5472 18.123 35.1032 18.678C35.6117 19.1779 36.0051 19.7826 36.2562 20.45C36.5032 21.087 36.6712 21.813 36.7212 22.878C36.7332 23.144 36.7432 23.365 36.7512 23.59L36.7572 23.784C36.7722 24.276 36.7782 24.847 36.7802 25.972L36.7812 26.718V28.028C36.7836 28.7574 36.7759 29.4868 36.7582 30.216L36.7522 30.41C36.7442 30.635 36.7342 30.856 36.7222 31.122C36.6722 32.187 36.5022 32.912 36.2562 33.55C36.0058 34.2178 35.6123 34.8226 35.1032 35.322C34.6031 35.8303 33.9985 36.2238 33.3312 36.475C32.6942 36.722 31.9682 36.89 30.9042 36.94C30.6669 36.9512 30.4295 36.9612 30.1922 36.97L29.9982 36.976C29.5052 36.99 28.9342 36.997 27.8092 36.999L27.0632 37H25.7542C25.0244 37.0025 24.2947 36.9949 23.5652 36.977L23.3712 36.971C23.1338 36.962 22.8964 36.9517 22.6592 36.94C21.5952 36.89 20.8692 36.722 20.2312 36.475C19.5638 36.2244 18.9594 35.8308 18.4602 35.322C17.9512 34.8223 17.5574 34.2176 17.3062 33.55C17.0592 32.913 16.8912 32.187 16.8412 31.122C16.83 30.8847 16.82 30.6474 16.8112 30.41L16.8062 30.216C16.7877 29.4868 16.7794 28.7574 16.7812 28.028V25.972C16.7784 25.2426 16.7857 24.5132 16.8032 23.784L16.8102 23.59C16.8182 23.365 16.8282 23.144 16.8402 22.878C16.8902 21.813 17.0582 21.088 17.3052 20.45C17.5563 19.7819 17.9509 19.177 18.4612 18.678C18.9602 18.1695 19.5643 17.776 20.2312 17.525C20.8692 17.278 21.5942 17.11 22.6592 17.06C22.9252 17.048 23.1472 17.038 23.3712 17.03L23.5652 17.024C24.2943 17.0062 25.0238 16.9986 25.7532 17.001L27.8092 17ZM26.7812 22C25.4551 22 24.1833 22.5268 23.2456 23.4645C22.3079 24.4021 21.7812 25.6739 21.7812 27C21.7812 28.3261 22.3079 29.5979 23.2456 30.5355C24.1833 31.4732 25.4551 32 26.7812 32C28.1072 32 29.379 31.4732 30.3167 30.5355C31.2544 29.5979 31.7812 28.3261 31.7812 27C31.7812 25.6739 31.2544 24.4021 30.3167 23.4645C29.379 22.5268 28.1072 22 26.7812 22ZM26.7812 24C27.1751 23.9999 27.5652 24.0775 27.9292 24.2282C28.2932 24.3789 28.624 24.5998 28.9026 24.8783C29.1812 25.1569 29.4023 25.4875 29.5531 25.8515C29.7039 26.2154 29.7816 26.6055 29.7817 26.9995C29.7817 27.3935 29.7042 27.7836 29.5535 28.1476C29.4028 28.5116 29.1819 28.8423 28.9033 29.121C28.6248 29.3996 28.2941 29.6206 27.9302 29.7714C27.5662 29.9223 27.1761 29.9999 26.7822 30C25.9865 30 25.2234 29.6839 24.6608 29.1213C24.0982 28.5587 23.7822 27.7956 23.7822 27C23.7822 26.2044 24.0982 25.4413 24.6608 24.8787C25.2234 24.3161 25.9865 24 26.7822 24M32.0322 20.5C31.7006 20.5 31.3827 20.6317 31.1483 20.8661C30.9139 21.1005 30.7822 21.4185 30.7822 21.75C30.7822 22.0815 30.9139 22.3995 31.1483 22.6339C31.3827 22.8683 31.7006 23 32.0322 23C32.3637 23 32.6816 22.8683 32.916 22.6339C33.1505 22.3995 33.2822 22.0815 33.2822 21.75C33.2822 21.4185 33.1505 21.1005 32.916 20.8661C32.6816 20.6317 32.3637 20.5 32.0322 20.5Z" fill="white"/>
</svg>
