<svg xmlns="http://www.w3.org/2000/svg" width="54" height="54" viewBox="0 0 54 54" fill="none">
    <path opacity="0.1" d="M27.3903 52.8259C41.438 52.8259 52.8259 41.438 52.8259 27.3903C52.8259 13.3426 41.438 1.9547 27.3903 1.9547C13.3426 1.9547 1.9547 13.3426 1.9547 27.3903C1.9547 41.438 13.3426 52.8259 27.3903 52.8259Z" stroke="white" stroke-width="2.0906"/>
    <path d="M21.7923 22.4683C22.9343 22.4683 23.86 21.5426 23.86 20.4007C23.86 19.2587 22.9343 18.333 21.7923 18.333C20.6504 18.333 19.7247 19.2587 19.7247 20.4007C19.7247 21.5426 20.6504 22.4683 21.7923 22.4683Z" fill="white"/>
    <path d="M23.5155 23.8501H20.0693C19.8791 23.8501 19.7247 24.0045 19.7247 24.1947V34.5331C19.7247 34.7233 19.8791 34.8777 20.0693 34.8777H23.5155C23.7057 34.8777 23.8601 34.7233 23.8601 34.5331V24.1947C23.8601 24.0045 23.7057 23.8501 23.5155 23.8501Z" fill="white"/>
    <path d="M33.7849 23.2784C32.312 22.7738 30.4697 23.217 29.3649 24.0117C29.327 23.8635 29.1919 23.7532 29.0313 23.7532H25.5852C25.3949 23.7532 25.2406 23.9076 25.2406 24.0978V34.4362C25.2406 34.6264 25.3949 34.7808 25.5852 34.7808H29.0313C29.2215 34.7808 29.3759 34.6264 29.3759 34.4362V27.0064C29.9328 26.5267 30.6503 26.3737 31.2375 26.6232C31.8068 26.8637 32.1328 27.4509 32.1328 28.2332V34.4362C32.1328 34.6264 32.2872 34.7808 32.4774 34.7808H35.9235C36.1137 34.7808 36.2681 34.6264 36.2681 34.4362V27.5391C36.2288 24.7071 34.8966 23.6588 33.7849 23.2784Z" fill="white"/>
</svg>