<svg xmlns="http://www.w3.org/2000/svg" width="54" height="54" viewBox="0 0 54 54" fill="none">
    <path opacity="0.1" d="M26.732 52.8259C40.7797 52.8259 52.1676 41.438 52.1676 27.3903C52.1676 13.3426 40.7797 1.9547 26.732 1.9547C12.6843 1.9547 1.29644 13.3426 1.29644 27.3903C1.29644 41.438 12.6843 52.8259 26.732 52.8259Z" stroke="white" stroke-width="2.0906"/>
    <path d="M34.7045 22.8818C34.5913 22.7538 34.4088 22.7217 34.2591 22.8006C34.166 22.8496 33.991 22.9139 33.7832 22.9775C34.0454 22.619 34.2561 22.2176 34.3492 21.8568C34.3894 21.7013 34.3306 21.5374 34.2025 21.4447C34.0744 21.3528 33.9039 21.3528 33.7758 21.4447C33.574 21.5895 32.5999 22.0246 31.984 22.1655C30.5921 20.9116 28.9723 20.7814 27.2885 21.7925C25.9197 22.6144 25.6218 24.2859 25.6799 25.3046C22.5468 24.9944 20.5993 23.2923 19.5031 21.8837C19.4264 21.7848 19.3028 21.7328 19.1866 21.7404C19.0644 21.7496 18.9542 21.8193 18.8917 21.9273C18.3733 22.8274 18.2296 23.8224 18.4776 24.8052C18.6131 25.3414 18.85 25.814 19.1248 26.197C18.9929 26.1304 18.8656 26.0469 18.7457 25.9473C18.6355 25.8539 18.4813 25.8362 18.351 25.8983C18.2214 25.9619 18.1387 26.0967 18.1387 26.2445C18.1387 27.932 19.165 29.0581 20.1234 29.6464C19.9685 29.6272 19.8069 29.592 19.6438 29.5406C19.5038 29.497 19.3519 29.5406 19.2551 29.654C19.1583 29.7666 19.1352 29.9275 19.1955 30.0646C19.734 31.2894 20.7542 32.132 22.0165 32.4377C20.9143 33.1033 19.439 33.4297 18.0881 33.2696C17.9131 33.2443 17.7463 33.3584 17.6912 33.5315C17.6361 33.7047 17.7083 33.8946 17.8625 33.9835C19.9119 35.167 21.7648 35.5898 23.366 35.5898C25.6962 35.5898 27.4948 34.6951 28.5895 33.9467C31.5409 31.9321 33.3803 28.315 33.1242 25.0787C33.5971 24.7194 34.3045 24.056 34.7432 23.3429C34.834 23.1989 34.8177 23.0089 34.7045 22.8818Z" fill="white"/>
</svg>